<svg width="82" height="82" viewBox="0 0 82 82" fill="none" xmlns="http://www.w3.org/2000/svg">
  <g filter="url(#filter0_d)">
    <circle cx="41" cy="41" r="33" fill="#5B074D"/>
  </g>
  <path d="M41.0042 24H40.9958C31.6224 24 24 31.6245 24 41C24 44.7188 25.1985 48.1655 27.2364 50.9641L25.1178 57.2796L31.6521 55.1908C34.3403 56.9715 37.5469 58 41.0042 58C50.3776 58 58 50.3734 58 41C58 31.6266 50.3776 24 41.0042 24ZM50.8961 48.0061C50.486 49.1642 48.8582 50.1248 47.5599 50.4052C46.6716 50.5944 45.5114 50.7453 41.6056 49.126C36.6097 47.0563 33.3925 41.9796 33.1418 41.6502C32.9016 41.3209 31.123 38.9621 31.123 36.5226C31.123 34.0831 32.3619 32.8953 32.8612 32.3853C33.2714 31.9666 33.9493 31.7754 34.5995 31.7754C34.8099 31.7754 34.999 31.786 35.169 31.7945C35.6684 31.8158 35.9191 31.8455 36.2485 32.6339C36.6586 33.622 37.6574 36.0615 37.7764 36.3123C37.8975 36.563 38.0186 36.903 37.8486 37.2324C37.6892 37.5724 37.549 37.7232 37.2983 38.0122C37.0475 38.3012 36.8095 38.5223 36.5588 38.8325C36.3292 39.1024 36.07 39.3914 36.359 39.8907C36.648 40.3795 37.6467 42.0094 39.1172 43.3184C41.0149 45.0077 42.5534 45.5475 43.1038 45.777C43.5139 45.947 44.0026 45.9066 44.3022 45.5879C44.6826 45.1778 45.1523 44.4978 45.6304 43.8284C45.9704 43.3481 46.3996 43.2886 46.8501 43.4586C47.3091 43.618 49.738 44.8186 50.2374 45.0672C50.7367 45.318 51.0661 45.437 51.1873 45.6474C51.3062 45.8577 51.3062 46.8459 50.8961 48.0061Z" fill="white"/>
  <defs>
    <filter id="filter0_d" x="0" y="0" width="82" height="82" filterUnits="userSpaceOnUse" color-interpolation-filters="sRGB">
      <feFlood flood-opacity="0" result="BackgroundImageFix"/>
      <feColorMatrix in="SourceAlpha" type="matrix" values="0 0 0 0 0 0 0 0 0 0 0 0 0 0 0 0 0 0 127 0"/>
      <feMorphology radius="3" operator="dilate" in="SourceAlpha" result="effect1_dropShadow"/>
      <feOffset/>
      <feGaussianBlur stdDeviation="2.5"/>
      <feColorMatrix type="matrix" values="0 0 0 0 0.14902 0 0 0 0 0.14902 0 0 0 0 0.14902 0 0 0 0.3 0"/>
      <feBlend mode="normal" in2="BackgroundImageFix" result="effect1_dropShadow"/>
      <feBlend mode="normal" in="SourceGraphic" in2="effect1_dropShadow" result="shape"/>
      </filter>
  </defs>
</svg>
