<svg width="68" height="69" viewBox="0 0 68 69" fill="none" xmlns="http://www.w3.org/2000/svg">
    <g filter="url(#filter0_d)">
    <circle cx="34.0443" cy="34.3489" r="25.8672" fill="#5B074D"/>
    </g>
    <g clip-path="url(#clip0)">
    <path d="M29.1629 51.7841C27.3664 51.7841 25.5173 51.6386 23.657 51.347C20.3807 50.8329 17.064 49.1191 16.1255 48.6059L13.664 47.2601L16.329 46.3837C19.2422 45.4259 21.0143 44.8316 23.2079 43.901C21.0114 42.8373 19.3185 40.9238 18.5037 38.4503L17.8837 36.5682L18.3921 36.6458C17.91 36.1599 17.5293 35.6668 17.2342 35.2183C16.1848 33.6243 15.6292 31.6766 15.7474 30.0075L15.864 28.3647L16.8476 28.7457C16.4327 27.9622 16.1328 27.1254 15.9566 26.2484C15.5271 24.1095 15.8865 21.8373 16.969 19.8503L17.8257 18.2775L18.9715 19.6537C22.5952 24.0068 27.1851 26.5891 32.6326 27.345C32.4101 25.8113 32.5768 24.3311 33.1287 23.0043C33.7711 21.4594 34.9141 20.1495 36.4329 19.2157C38.1198 18.1789 40.1654 17.6766 42.193 17.8011C44.3442 17.9333 46.2972 18.7393 47.8484 20.1336C48.606 19.9368 49.1641 19.7266 49.9185 19.4426C50.3723 19.2718 50.8871 19.0778 51.5311 18.856L53.9045 18.0382L52.3568 22.4585C52.4589 22.4499 52.5641 22.4427 52.6741 22.4379L55.2085 22.3232L53.7105 24.3704C53.6246 24.4877 53.6028 24.5209 53.5723 24.5669C53.4516 24.7488 53.3013 24.9751 51.2452 27.7206C50.7305 28.4081 50.4735 29.3035 50.5213 30.2423C50.7036 33.81 50.2659 37.0379 49.2196 39.836C48.23 42.4832 46.6966 44.7546 44.6624 46.5869C42.1451 48.8538 38.9353 50.4059 35.1217 51.1996C33.251 51.5888 31.2421 51.7841 29.1629 51.7841Z" fill="white"/>
    </g>
    <defs>
    <filter id="filter0_d" x="0.177063" y="0.481689" width="67.7344" height="67.7344" filterUnits="userSpaceOnUse" color-interpolation-filters="sRGB">
    <feFlood flood-opacity="0" result="BackgroundImageFix"/>
    <feColorMatrix in="SourceAlpha" type="matrix" values="0 0 0 0 0 0 0 0 0 0 0 0 0 0 0 0 0 0 127 0"/>
    <feMorphology radius="3" operator="dilate" in="SourceAlpha" result="effect1_dropShadow"/>
    <feOffset/>
    <feGaussianBlur stdDeviation="2.5"/>
    <feColorMatrix type="matrix" values="0 0 0 0 0.14902 0 0 0 0 0.14902 0 0 0 0 0.14902 0 0 0 0.3 0"/>
    <feBlend mode="normal" in2="BackgroundImageFix" result="effect1_dropShadow"/>
    <feBlend mode="normal" in="SourceGraphic" in2="effect1_dropShadow" result="shape"/>
    </filter>
    <clipPath id="clip0">
    <rect width="41.5443" height="41.5443" fill="white" transform="translate(13.664 13.9688)"/>
    </clipPath>
    </defs>
</svg>
